PathFileType	4	(X/Y/Z)	6_coords_data.trc
DataRate	CameraRate	NumFrames	NumMarkers	Units	OrigDataRate	OrigDataStartFrame	OrigNumFrames
30.0	30.0	5	21	m	30.0	1	71
Frame#	Time	THUMB_TIP	THUMB_IP	THUMB_MCP	THUMB_CMC	INDEX_TIP	INDEX_DIP	INDEX_PIP	INDEX_MCP	MIDDLE_TIP	MIDDLE_DIP	MIDDLE_PIP	MIDDLE_MCP	RING_TIP	RING_DIP	RING_PIP	RING_MCP	PINKY_TIP	PINKY_DIP	PINKY_PIP	PINKY_MCP	WRIST
X1	Y1	Z1	X2	Y2	Z2	X3	Y3	Z3	X4	Y4	Z4	X5	Y5	Z5	X6	Y6	Z6	X7	Y7	Z7	X8	Y8	Z8	X9	Y9	Z9	X10	Y10	Z10	X11	Y11	Z11	X12	Y12	Z12	X13	Y13	Z13	X14	Y14	Z14	X15	Y15	Z15	X16	Y16	Z16	X17	Y17	Z17	X18	Y18	Z18	X19	Y19	Z19	X20	Y20	Z20	X21	Y21	Z21
0	-2.749317978547796e-18	0.5298042044283865	-0.0274882628504709	-0.1059979663657862	0.5157190675489536	-0.028830892281631826	-0.12410338724734041	0.4848365251919653	-0.025864401486099253	-0.12159569708927724	0.47124204768414857	-0.023090366390530193	-0.07920012054433549	0.559464477074045	0.06296164533258553	-0.1569528839968279	0.5453797841813999	0.05589350193589382	-0.14802748344314537	0.5272371911532316	0.04513540990056886	-0.13434831654695834	0.4973647342481602	0.029424937765146653	-0.10837807438911966	0.4989732029702253	-0.027571903572669476	-0.10179358038399378	0.5144000685924077	-0.018852053116998224	-0.10553203261798741	0.5330971899778498	0.0033065298669954224	-0.10850262212842295	0.5091798544118015	0.0340177420063561	-0.08657249606056332	0.5136492614633796	-0.03030442098728514	-0.0948267897101368	0.5275339640681016	-0.01881098939832071	-0.09448610820458725	0.5450504584566205	-0.001144779280513153	-0.09336475928009424	0.524002418360732	0.024588305770030905	-0.07035369290099412	0.602816178555765	0.005894689327866187	-0.07403465798875326	0.5859253951405723	0.004330833677305468	-0.07174210676244175	0.5653858872566108	0.0033100628899540574	-0.06751142574346	0.5301012622082695	0.005079715662312911	-0.06024871170095078	0.4622830810018608	-0.023011742144276925	-0.051989820119430985
1	0.03333333333333339	0.5297127443454454	-0.026790798975650953	-0.10619989413783806	0.5156210207231174	-0.027953877258234172	-0.12431261271513927	0.48471962906638444	-0.0253263184663155	-0.12166309795348826	0.47174522297766275	-0.023410714026808277	-0.0790264324380392	0.5593508038431051	0.06351267544798123	-0.1569551459489626	0.5454096997756622	0.05630819185917102	-0.14791407114563906	0.5271707528855573	0.04549267641221533	-0.1344094321294862	0.4976139673993759	0.02918125878412081	-0.10844849646287855	0.49907635478971346	-0.027579806167803866	-0.1017744657202625	0.5145812392737921	-0.01912987826611623	-0.10579904962318447	0.5332077996867094	0.0031161643566323116	-0.10855120964956341	0.5093384851778044	0.03386074968454578	-0.08661552596088773	0.5134906464999643	-0.030506029941286594	-0.0947688312527501	0.5272914914326977	-0.018908488506351517	-0.0945852234979819	0.544673420298881	-0.0011237134267578774	-0.09326223322620855	0.523943949649618	0.02475236024966143	-0.07012268500905723	0.6028500087207183	0.005974075958644298	-0.07386831896371301	0.5859688388253159	0.004340548538336875	-0.07155365027691059	0.5653919567351793	0.003427442505968714	-0.06748300170177346	0.5301123532860084	0.0050766294837790715	-0.06016772906287074	0.4622830810018609	-0.023011742144276925	-0.051989820119430985
2	0.06666666666666676	0.5296357296248557	-0.02625771629757745	-0.10632826736350515	0.515539370804165	-0.027274517156212208	-0.12444618070947898	0.48462645956586825	-0.024906947663539736	-0.12168818624419116	0.47212288938777747	-0.02364797114608619	-0.07888671768375438	0.5592539940381522	0.06389625522553577	-0.15697325387526948	0.5454255621712577	0.05659321182043442	-0.147838702483665	0.5271173547408315	0.04574584712230734	-0.13445385833850174	0.49780219576400897	0.02900762349891739	-0.10849062629591844	0.49916896589502313	-0.027550059692937667	-0.10173643606799027	0.5147306860755727	-0.019327008307305382	-0.10600425646387457	0.5332951860735616	0.002991928311342096	-0.108579903574305	0.5094572989412436	0.03375217898862226	-0.08663200990913165	0.5133576419178613	-0.030616622743615762	-0.0946620564708843	0.5271209426428525	-0.018973102957072996	-0.09466169062612677	0.5443920874435777	-0.0010934952086518734	-0.09317603823240311	0.5238986650869909	0.02488090394398168	-0.06993660917800898	0.6028732423152355	0.006035467698407571	-0.07373406120089288	0.5860000728971657	0.004345183879525205	-0.07140187458727584	0.5653954616291591	0.0035176134966157235	-0.06745508592360623	0.5301207046286598	0.005077000963426337	-0.060096874165028125	0.462283081001861	-0.023011742144276925	-0.051989820119430985
3	0.10000000000000014	0.5295781723674983	-0.025871572547695565	-0.1064075705812008	0.5154784765342039	-0.026770772651211416	-0.1245291051901245	0.48455878067481084	-0.024592696000735548	-0.12169213672585033	0.47239188916169395	-0.023812098228420786	-0.07878237771900083	0.5591763049626813	0.06413812546424813	-0.1570078579877049	0.5454313690668731	0.05677079831593412	-0.14779920836303997	0.5270760085606087	0.045913481722894556	-0.1344872118905504	0.4979354292049093	0.02889744059713184	-0.10850804575265158	0.49925316037638023	-0.027500033182488726	-0.10169360598196373	0.5148525309529007	-0.019453256501049565	-0.1061555587669489	0.5333629862227912	0.002926142039450963	-0.10859176825441563	0.509541174450002	0.03368606198256785	-0.08662596460522376	0.5132474972493417	-0.030644266609402337	-0.0945243931718868	0.5270163798410645	-0.019008968351019728	-0.09471857508100613	0.5441978349954188	-0.001054276303235513	-0.09310407477188576	0.5238648328650956	0.02497909196417558	-0.06978983888430788	0.6028877924492454	0.006083839078335207	-0.07362914840512697	0.5860210160903603	0.00434864925508649	-0.07128373340205259	0.5653968554773223	0.0035853146708245687	-0.06742713667435578	0.5301264775978458	0.005080913608071502	-0.0600347704051665	0.462283081001861	-0.023011742144276925	-0.051989820119430985
4	0.13333333333333353	0.5295414903631087	-0.02561328653076944	-0.10645452420843851	0.5154392482398235	-0.0264194251432196	-0.12457845611169151	0.4845157452101664	-0.02436951786475272	-0.12168798201139447	0.47256827228508747	-0.02391312986275107	-0.07871194682088234	0.5591174093261247	0.06425986492793156	-0.1570589889308699	0.5454294345908062	0.056858763060669615	-0.14779275783102735	0.527045032254317	0.04601045374262491	-0.1345135346357454	0.4980201688714224	0.02884316120540198	-0.10850435420756353	0.49932964557069903	-0.0274419887418903	-0.10165525796893336	0.5149504466343204	-0.019518382674951318	-0.10626036828539018	0.533414267868105	0.0029108736771192856	-0.1085895988321464	0.5095947512187073	0.03365646246925813	-0.08660125379633751	0.5131610915259729	-0.030602592928184902	-0.09437470598878125	0.5269703338819313	-0.019019956372107294	-0.09475857571176124	0.544080589696284	-0.001006599283777554	-0.09304448954831465	0.5238407055332642	0.025051670848199148	-0.06967710884793503	0.6028952261910154	0.00612389096566357	-0.07355013815015007	0.5860333181394626	0.004354350906269011	-0.07119540146865563	0.565396456068496	0.0036352897762018666	-0.06739870633273518	0.5301298012258666	0.005088470596389172	-0.059980163840122835	0.4622830810018609	-0.023011742144276925	-0.051989820119430985
